<svg xmlns="http://www.w3.org/2000/svg" width="411" height="162" viewBox="-434 320 411 162" fill="#0072c6"><path d="M-280.8 416c-9 0-14.1-4.8-16.9-11.5H-311c4.6 9.8 14.3 16 26.2 16 8.8 0 18.2-3.5 23.9-10.8l-2.8-2.5c-4.4 5.2-10.4 8.8-17.1 8.8zm161-1.8c-3.8 0-4.6-5.4-4.7-9.7H-136v2.4c-3.8 3.8-9.6 8-14.9 8-5.6 0-8.7-4.9-8.7-10.1v-.3c.2-7.5 7.3-12.4 14.3-16h-2.9 2.9c3.3-1.7 6.7-3.2 9.3-4.5v4.5h11.5v-11.3c0-16.1-6.9-20.2-22-20.2-6.9 0-25 2-25 12.3 0 3.1 2.2 5.1 5.2 5.1 3.4 0 5.2-3.1 5.4-6.2.4-7.4 6-8 12.8-8 11.1 0 11.9 6.7 11.9 16.3 0 1.5.3 3.4-1.1 4.1l-13.4 6.7-2.7 1.2c-7.4 3.4-16.3 7.8-18.4 16-.3 1.1-.4 2.4-.4 3.7 0 7.9 6.9 12.3 14.1 12.3 8.4 0 16.3-4.6 22.6-10 1.4 5.6 6.1 10 11.7 10 5 0 10-4.8 12.2-9.4l-2.6-1.4c-1.6 2-2.9 4.5-5.6 4.5zm41.8-9.7h-11.5c0 8 0 11-9.5 11.7v2.8l15.7-.6 14.8.6v-2.8c-9.6-.7-9.6-4.2-9.5-11.7zm-113.3 4.1l-2.8-2.9c-4.1 5.6-10.2 10.4-17.1 10.4-8.3 0-14.1-4.9-17.5-11.5-2.5-4.8-3.7-10.5-3.8-16v-.7l.5-6.7h38.9c1.4 0 3.4.6 3.4-1.3 0-15.1-12.6-22.9-25.9-22.9-17 0-29.6 14.8-30.5 31.5v1.8c0 5.3 1.2 10 3.3 14.2 5.1 9.9 15.5 16 27.3 16 10.2 0 17.8-3.8 24.2-11.9zm-24.2-48.4c8.5 0 13.2 5.6 13.2 14.3 0 3.5-4.5 2.8-6.6 2.8h-22.4c1.6-9.1 5.7-17.1 15.8-17.1z"/><path d="M-36.6 404.5h-11.5c0 8 0 11-9.5 11.7v2.8l15.7-.6 14.8.6v-2.8c-9.5-.7-9.6-4.2-9.5-11.7zm-261.1 0c-1.9-4.7-2.7-10.4-2.7-16 0-12.3 4.5-27.7 19.1-27.7 5 0 6.1 1.1 7.7 5.3.9 2.7 2.7 5.5 6 5.5 2.4 0 4.5-2.7 4.5-5.2 0-7.7-12.3-9.4-17.6-9.4-18.1 0-32.1 13.1-33.2 31.5 0 .7-.1 1.5-.1 2.3 0 5.1 1 9.7 2.9 13.7h13.4zm173.1 0c-.1-1.7 0-3.2 0-4.2v-11.8h-11.5v16h11.5zm-293 0c9.2 10.1 22.6 16 37.2 16 15 0 28.3-5.9 37.2-16 4.1-4.5 7.2-9.9 9.3-16 1.7-5.1 2.7-10.7 2.7-16.7 0-27.8-22.8-47.4-48.7-47.4-26.1 0-49.7 20.5-49.7 48.4 0 5.6.9 10.9 2.5 15.7 2.1 6.1 5.4 11.4 9.5 16zm6.5-16c-1.1-5-1.6-10.3-1.6-15.7 0-20.8 8.8-44.6 32.3-44.6 23.9 0 32.3 23.1 32.3 44.2 0 5.3-.5 10.9-1.6 16.1-1.3 5.9-3.3 11.4-6.4 16-4.9 7.3-12.4 12.2-23.5 12.2-11.6 0-19.6-4.8-24.8-12.2h-7.7 7.7c-3.2-4.5-5.3-10-6.7-16h-7.3 7.3z"/><path d="M-48.1 384.9v19.6h11.5v-28.2c0-13.3-7.3-19.4-20.2-19.4-9.6 0-17 4.1-21.7 12.8l-2-12.8c-6.6 1.3-11.7 3.5-18.7 4.3v2.8c4.3 0 8-.6 9.1 4.5.7 3.2.7 13 .7 17v18.9h11.5v-24.2c0-10.2 6.8-18.8 17.4-18.8 12.8 0 12.4 13.8 12.4 23.5zm-346.6 66.7v-.1c3.3-1.4 5.3-4.4 5.3-8.3 0-3.6-1.9-6.3-4.2-7.8-2.2-1.4-6.3-1.4-9.5-1.4h-13v37.2h17.4c7.2 0 10.9-5.2 10.9-10.7 0-4.5-2.4-8-6.9-8.9zm-16.6-13.4h9.6c4.1 0 7.7.7 7.7 5.9 0 3.9-2.2 5.9-7.7 5.9h-9.6v-11.8zm12 28.9h-12v-12.9h10.9c4 0 7.8 1.4 7.8 6.2 0 4.1-2.6 6.7-6.7 6.7zm26.7-.8h-.1l-7.6-22h-4.8l10.3 26.8-1.8 4.6c-.8 1.6-1.8 2.4-3.5 2.4-.9 0-1.7-.4-2.5-.6v4.1c1 .4 2 .5 3 .5 3.8 0 5.6-1.9 7.6-7.2l11.3-30.5h-4.5l-7.4 21.9zm50.9-16.3h-19v-16h-4.7v37.2h4.7v-17h19v17h4.8V434h-4.8zm10.6-8.8v3.5h9.3v26.5h4.3v-36.9h-3.3c-1 5.6-5.4 6.9-10.3 6.9zm32.1-6.9c-11.2 0-11.9 10.6-11.9 18.8 0 8.1.7 18.8 11.9 18.8s11.9-10.6 11.9-18.8-.8-18.8-11.9-18.8zm0 33.6c-7.3 0-7.4-9.4-7.4-14.9s.1-14.9 7.4-14.9 7.4 9.4 7.4 14.9c-.1 5.6-.1 14.9-7.4 14.9zm55.6-17.9h-18.9v-16h-4.8v37.2h4.8v-17h18.9v17h4.8V434h-4.8zm22.7-6.3c-8.3 0-12.6 6.2-12.6 14.1s4.4 14.1 12.6 14.1c8.3 0 12.6-6.2 12.6-14.1.1-7.9-4.3-14.1-12.6-14.1zm0 24.2c-4.5 0-8.1-3.6-8.1-10.2s3.6-10.2 8.1-10.2 8.1 3.6 8.1 10.2-3.6 10.2-8.1 10.2zm22.1-31.7h-4.3v8.1h-4.4v3.9h4.4v17.1c0 5 1.8 5.9 6.2 5.9h3.3v-3.9h-2c-2.7 0-3.2-.4-3.2-2.4v-16.7h5.2v-3.9h-5.2v-8.1zm19.3 7.5c-7.1 0-12.2 5.9-12.2 14 .3 8.2 4.2 14.2 12.5 14.2 5.8 0 10-3.2 11.1-9.2h-4.2c-.8 3.5-3.2 5.3-6.8 5.3-5.7 0-8.3-4.2-8.1-8.9h19.5c.2-6.5-2.6-15.4-11.8-15.4zm-7.7 11.5c.3-4.1 3-7.6 7.5-7.6 4.2 0 7.3 3.4 7.5 7.6h-15zm22.6-21.2h4.3v37.2h-4.3zm22.4 21.7c-4-1-8.5-1.5-8.5-4.7 0-2.7 3-3.4 5.5-3.4 2.8 0 5.7 1.1 6 4.5h4.3c-.4-6.6-4.9-8.4-10.7-8.4-4.5 0-9.7 2.2-9.7 7.7 0 5.2 4.3 6.6 8.5 7.6 4.3 1 8.5 1.6 8.5 5s-3.6 4-6.3 4c-3.5 0-6.9-1.2-7-5.2h-4.3c.3 6.7 5.2 9.1 11 9.1 5.3 0 11.1-2.1 11.1-8.5.1-5.3-4.1-6.7-8.4-7.7z"/></svg>